<?xml version="1.0" encoding="UTF-8"?>
<!DOCTYPE svg PUBLIC "-//W3C//DTD SVG 1.1//EN" "http://www.w3.org/Graphics/SVG/1.1/DTD/svg11.dtd">
<!-- Creator: CorelDRAW X8 -->
<svg xmlns="http://www.w3.org/2000/svg" xml:space="preserve" width="11.6506in" height="3.81442in" version="1.1" style="shape-rendering:geometricPrecision; text-rendering:geometricPrecision; image-rendering:optimizeQuality; fill-rule:evenodd; clip-rule:evenodd"
viewBox="0 0 11651 3814"
 xmlns:xlink="http://www.w3.org/1999/xlink">
 <defs>
  <style type="text/css">
   <![CDATA[
    .fil0 {fill:none}
    .fil1 {fill:#333333;fill-rule:nonzero}
    .fil2 {fill:#FBEB20;fill-rule:nonzero}
    .fil7 {fill:url(#id0);fill-rule:nonzero}
    .fil6 {fill:url(#id1);fill-rule:nonzero}
    .fil8 {fill:url(#id2);fill-rule:nonzero}
    .fil4 {fill:url(#id3);fill-rule:nonzero}
    .fil9 {fill:url(#id4);fill-rule:nonzero}
    .fil5 {fill:url(#id5);fill-rule:nonzero}
    .fil10 {fill:url(#id6);fill-rule:nonzero}
    .fil3 {fill:url(#id7);fill-rule:nonzero}
   ]]>
  </style>
  <linearGradient id="id0" gradientUnits="userSpaceOnUse" x1="656.044" y1="1166.99" x2="3150.44" y2="1166.98">
   <stop offset="0" style="stop-opacity:1; stop-color:#F8E12A"/>
   <stop offset="1" style="stop-opacity:1; stop-color:#EE3023"/>
  </linearGradient>
  <linearGradient id="id1" gradientUnits="userSpaceOnUse" x1="2208.31" y1="2667" x2="224.48" y2="2666.99">
   <stop offset="0" style="stop-opacity:1; stop-color:#F16828"/>
   <stop offset="1" style="stop-opacity:1; stop-color:#FCED20"/>
  </linearGradient>
  <linearGradient id="id2" gradientUnits="userSpaceOnUse" x1="1967.47" y1="885.933" x2="1967.48" y2="1988.12">
   <stop offset="0" style="stop-opacity:1; stop-color:#F8C921"/>
   <stop offset="1" style="stop-opacity:1; stop-color:#EF4322"/>
  </linearGradient>
  <linearGradient id="id3" gradientUnits="userSpaceOnUse" x1="3155.85" y1="1115.67" x2="1213.12" y2="1115.66">
   <stop offset="0" style="stop-opacity:1; stop-color:#EF4322"/>
   <stop offset="1" style="stop-opacity:1; stop-color:#FBEB20"/>
  </linearGradient>
  <linearGradient id="id4" gradientUnits="userSpaceOnUse" x1="2685.28" y1="2788.39" x2="2685.28" y2="1547.19">
   <stop offset="0" style="stop-opacity:1; stop-color:#F7A321"/>
   <stop offset="1" style="stop-opacity:1; stop-color:#EB1F24"/>
  </linearGradient>
  <linearGradient id="id5" gradientUnits="userSpaceOnUse" x1="2082" y1="1273.43" x2="2895.19" y2="1273.42">
   <stop offset="0" style="stop-opacity:1; stop-color:#DD0023"/>
   <stop offset="1" style="stop-opacity:1; stop-color:#5C0113"/>
  </linearGradient>
  <linearGradient id="id6" gradientUnits="userSpaceOnUse" x1="3355.01" y1="2567.44" x2="746.969" y2="2567.43">
   <stop offset="0" style="stop-opacity:1; stop-color:#EF4022"/>
   <stop offset="1" style="stop-opacity:1; stop-color:#FBE720"/>
  </linearGradient>
  <linearGradient id="id7" gradientUnits="userSpaceOnUse" x1="634.13" y1="2789.86" x2="3193.14" y2="2789.86">
   <stop offset="0" style="stop-opacity:1; stop-color:#FBEB20"/>
   <stop offset="1" style="stop-opacity:1; stop-color:#F15F22"/>
  </linearGradient>
 </defs>
 <g id="Layer_x0020_1">
  <metadata id="CorelCorpID_0Corel-Layer"/>
  <rect class="fil0" width="11651" height="3814"/>
  <g id="_2166989867584">
   <g>
    <g>
     <polygon class="fil1" points="4495,2208 4759,2208 4759,1377 5129,1377 5129,1117 4121,1117 4121,1377 4495,1377 "/>
     <path id="1" class="fil1" d="M5270 2208l264 0 0 -210 257 0 148 210 323 0 -205 -293c116,-81 196,-208 196,-358 0,-250 -221,-440 -474,-440l-509 0 0 1091zm264 -469l0 -363 234 0c123,0 221,86 221,181 0,96 -90,182 -213,182l-242 0z"/>
     <polygon id="2" class="fil1" points="6407,2208 6671,2208 6671,1117 6407,1117 "/>
     <path id="3" class="fil1" d="M6873 2208l264 0 0 -210 240 0c256,0 474,-193 474,-441 0,-250 -221,-440 -474,-440l-504 0 0 1091zm264 -469l0 -363 230 0c122,0 220,86 220,181 0,96 -90,182 -213,182l-237 0z"/>
     <polygon id="4" class="fil1" points="7990,2208 8879,2208 8879,1947 8254,1947 8254,1117 7990,1117 "/>
     <polygon id="5" class="fil1" points="9041,2208 9932,2208 9932,1947 9305,1947 9305,1786 9752,1786 9752,1531 9305,1531 9305,1376 9932,1376 9932,1117 9041,1117 "/>
     <path class="fil1" d="M10406 2042c204,144 388,203 544,203 267,0 449,-160 449,-344 0,-406 -705,-375 -705,-485 0,-37 60,-74 155,-74 91,0 212,34 363,130l147 -223c-190,-123 -358,-169 -496,-169 -262,0 -435,159 -435,346 0,382 705,321 705,480 0,38 -68,75 -173,75 -100,0 -227,-40 -393,-158l-161 219z"/>
    </g>
    <path class="fil1" d="M4121 2667c68,46 133,67 189,67 101,0 165,-55 165,-119 0,-150 -284,-122 -284,-195 0,-26 32,-52 87,-52 41,0 93,15 145,49l37 -57c-63,-40 -123,-59 -177,-59 -87,0 -158,48 -158,121 0,142 284,110 284,194 0,25 -35,52 -96,52 -43,0 -95,-18 -152,-58l-40 57z"/>
    <polygon id="1" class="fil1" points="4655,2721 4721,2721 4721,2621 4880,2315 4805,2315 4688,2544 4571,2315 4496,2315 4655,2621 "/>
    <path id="2" class="fil1" d="M4897 2667c67,46 132,67 189,67 101,0 164,-55 164,-119 0,-150 -283,-122 -283,-195 0,-26 31,-52 86,-52 42,0 93,15 146,49l37 -57c-64,-40 -123,-59 -178,-59 -86,0 -157,48 -157,121 0,142 283,110 283,194 0,25 -35,52 -95,52 -44,0 -96,-18 -153,-58l-39 57z"/>
    <polygon id="3" class="fil1" points="5428,2721 5494,2721 5494,2381 5641,2381 5641,2315 5282,2315 5282,2381 5428,2381 "/>
    <polygon id="4" class="fil1" points="5696,2721 6010,2721 6010,2655 5762,2655 5762,2550 5943,2550 5943,2484 5762,2484 5762,2381 6010,2381 6010,2315 5696,2315 "/>
    <polygon id="5" class="fil1" points="6076,2721 6142,2721 6142,2428 6277,2721 6343,2721 6478,2426 6478,2721 6545,2721 6545,2315 6459,2315 6310,2638 6161,2315 6076,2315 "/>
    <path id="6" class="fil1" d="M6600 2667c68,46 133,67 189,67 101,0 165,-55 165,-119 0,-150 -284,-122 -284,-195 0,-26 31,-52 87,-52 41,0 93,15 145,49l37 -57c-63,-40 -123,-59 -177,-59 -87,0 -158,48 -158,121 0,142 284,110 284,194 0,25 -36,52 -96,52 -43,0 -95,-18 -153,-58l-39 57z"/>
    <polygon id="7" class="fil1" points="7284,2721 7598,2721 7598,2655 7350,2655 7350,2315 7284,2315 "/>
    <polygon id="8" class="fil1" points="7659,2721 7725,2721 7725,2315 7659,2315 "/>
    <polygon id="9" class="fil1" points="7802,2721 7868,2721 7868,2428 8003,2721 8069,2721 8204,2426 8204,2721 8271,2721 8271,2315 8184,2315 8036,2638 7887,2315 7802,2315 "/>
    <polygon id="10" class="fil1" points="8347,2721 8413,2721 8413,2315 8347,2315 "/>
    <polygon id="11" class="fil1" points="8615,2721 8681,2721 8681,2381 8828,2381 8828,2315 8468,2315 8468,2381 8615,2381 "/>
    <polygon id="12" class="fil1" points="8882,2721 9196,2721 9196,2655 8949,2655 8949,2550 9129,2550 9129,2484 8949,2484 8949,2381 9196,2381 9196,2315 8882,2315 "/>
    <path id="13" class="fil1" d="M9262 2721l164 0c112,0 202,-91 202,-203 0,-112 -90,-203 -202,-203l-164 0 0 406zm67 -66l0 -274 98 0c76,0 136,62 136,137 0,75 -60,137 -136,137l-98 0z"/>
   </g>
   <g>
    <polygon class="fil2" points="659,2580 661,2579 659,2580 "/>
    <path class="fil3" d="M661 2579l2 -1c184,-67 383,-94 578,-82 89,6 179,15 266,36 63,9 125,28 186,44l0 1c56,15 111,33 166,53 60,22 120,45 179,69 60,23 120,46 179,70l1 -1c28,11 56,22 84,31 69,25 139,47 210,64 135,30 278,37 412,3 77,-19 150,-51 216,-94 95,-62 174,-147 241,-239 1,182 -64,366 -188,501 -101,115 -241,194 -390,227l0 1c-78,17 -160,25 -240,17 -66,-2 -132,-15 -196,-32 -84,-23 -165,-58 -243,-98 -61,-31 -119,-66 -177,-102 -70,-46 -139,-93 -208,-141 -77,-53 -155,-106 -235,-154 -52,-30 -104,-60 -158,-85 -34,-16 -70,-32 -106,-45 -57,-21 -114,-38 -173,-49 -114,-22 -233,-23 -347,-4 -20,4 -40,9 -61,11l2 -1zm547 -25l3 1 -2 -1 0 0 -2 0 2 0 0 0 -1 0zm13 3c3,0 6,1 9,1 -3,0 -6,-1 -9,-1zm1435 538c4,1 8,1 12,2l-12 -2zm202 14c26,1 52,1 78,0 -26,1 -52,0 -78,0z"/>
    <path class="fil4" d="M3118 911c51,94 79,206 54,312 -17,76 -67,146 -136,182l-4 -1 0 3c-32,21 -69,32 -105,42 -22,-88 -61,-171 -113,-244 -42,-60 -94,-112 -152,-157 -39,-30 -82,-57 -125,-81 -61,-31 -123,-57 -188,-77 -78,-25 -159,-39 -240,-53 -32,-1 -64,-8 -96,-8 -89,-9 -179,-5 -269,-5 -6,3 -13,3 -20,3 -76,5 -152,14 -228,26 -37,7 -73,13 -109,20l0 1c-39,7 -77,17 -115,27 -42,11 -84,23 -125,36 -71,23 -140,50 -208,78l1 1c-115,50 -224,112 -324,188 12,-14 26,-25 40,-37 79,-65 161,-126 247,-181 72,-46 146,-89 221,-130 24,-11 46,-26 71,-34 29,-17 61,-30 91,-45 85,-38 172,-73 260,-104 50,-17 101,-33 151,-47 50,-15 100,-27 150,-39 33,-8 66,-14 100,-21 44,-8 89,-14 133,-20 85,-9 171,-17 255,-12 49,-2 98,5 146,8l0 2c67,6 133,22 197,42 48,16 96,35 141,58 65,32 126,72 180,120l0 1c47,42 87,91 119,146z"/>
    <path class="fil5" d="M2177 1171c11,19 23,36 37,53 31,34 66,66 102,94 20,16 40,31 60,45 17,12 34,24 52,36 27,18 55,37 84,54 28,19 58,36 85,56 87,52 171,109 255,166 58,40 113,84 167,128 38,33 75,68 110,105 36,37 68,78 96,122 27,43 50,90 64,139l1 0c5,22 11,44 12,67 9,61 2,124 -15,184 -17,56 -45,109 -82,154l-1 0c-46,58 -106,102 -171,136 -115,59 -247,84 -376,78 -54,-4 -109,-11 -161,-29 9,-2 18,-3 28,-4 67,-15 130,-53 173,-107 38,-49 60,-110 59,-172 0,-58 -21,-114 -50,-164 -25,-40 -55,-76 -88,-109 -30,-30 -62,-57 -95,-83 -18,-14 -37,-28 -57,-42 -18,-13 -38,-26 -57,-39 -27,-18 -54,-35 -81,-53 -4,-3 -9,-5 -12,-9 -50,-28 -98,-59 -148,-89 -32,-19 -64,-39 -96,-59l-1 0c-47,-31 -94,-61 -139,-94 -40,-29 -78,-58 -115,-90 -27,-23 -53,-48 -77,-74 -31,-32 -59,-67 -84,-103 -17,-26 -32,-52 -45,-80 -25,-59 -42,-125 -32,-189 0,-21 7,-42 13,-63l1 0c24,-76 83,-136 149,-177 107,-64 239,-83 360,-56 43,9 85,24 123,45 18,11 37,20 53,34 -35,8 -68,22 -95,46 -16,19 -29,43 -27,69 -1,26 9,51 21,74z"/>
    <path class="fil6" d="M2071 2574c46,30 94,59 137,93 -49,-26 -98,-52 -148,-75 -54,-25 -110,-47 -166,-67 -45,-17 -92,-30 -138,-45 -34,-8 -69,-18 -103,-26 -37,-7 -73,-14 -109,-21 -79,-11 -159,-18 -238,-20 -64,3 -128,6 -192,15 -76,9 -151,22 -227,30 -136,17 -275,18 -408,-19 -79,-23 -158,-55 -228,-100 74,31 154,48 234,50 127,3 252,-27 375,-52 15,-2 29,-7 44,-7l-2 -1c84,-16 169,-29 255,-33 71,-3 143,-4 214,7 69,6 138,22 205,40l0 1c34,8 67,21 100,31l0 1c42,14 82,32 122,49 36,18 73,33 107,53 57,28 112,62 166,96z"/>
    <path class="fil7" d="M656 1167c79,-65 161,-126 247,-181 72,-46 146,-89 221,-130 24,-11 46,-26 71,-34 24,-4 46,-13 68,-22 44,-15 87,-32 132,-44 38,-10 75,-22 114,-29 13,-3 26,-6 39,-9 52,-10 104,-22 157,-28 34,-5 68,-10 103,-13 10,-1 21,-2 32,-3 29,-1 58,-3 87,-5 13,-1 27,-1 40,-1l1 0c68,4 136,-3 204,4 48,3 97,8 145,14 24,4 47,8 71,13 17,2 33,6 49,9 35,9 71,15 105,27 29,9 58,17 86,27 36,16 74,28 109,46 10,5 20,11 30,16 29,16 58,30 85,49 26,18 54,34 78,55 17,17 35,32 54,47 24,18 41,42 61,64 5,6 10,11 14,17 28,34 53,70 74,109 12,20 21,42 39,58 -17,76 -67,146 -136,182l-4 -1 0 3c-32,21 -69,32 -105,42 -22,-88 -61,-171 -113,-244 -42,-60 -94,-112 -152,-157 -39,-30 -82,-57 -125,-81 -61,-31 -123,-57 -188,-77 -78,-25 -159,-39 -240,-53 -32,-1 -64,-8 -96,-8 -89,-9 -179,-5 -269,-5 -6,3 -13,3 -20,3 -76,5 -152,14 -228,26 -37,7 -73,13 -109,20l0 1c-39,7 -77,17 -115,27 -42,11 -84,23 -125,36 -71,23 -140,50 -208,78l1 1c-115,50 -224,112 -324,188 12,-14 26,-25 40,-37z"/>
    <path class="fil8" d="M1742 959c107,-64 239,-83 360,-56 43,9 85,24 123,45 18,11 37,20 53,34 -35,8 -68,22 -95,46 -40,31 -65,78 -80,126 -13,44 -19,90 -22,136 0,50 1,101 9,151 3,19 7,39 9,59l1 -2c2,15 5,30 9,44 6,28 13,55 22,82 15,48 31,95 51,141 16,32 31,65 50,96l1 1c23,42 54,78 83,115 -50,-28 -98,-59 -148,-89 -32,-19 -64,-39 -96,-59l-1 0c-47,-31 -94,-61 -139,-94 -40,-29 -78,-58 -115,-90 -27,-23 -53,-48 -77,-74 -31,-32 -59,-67 -84,-103 -17,-26 -32,-52 -45,-80 -25,-59 -42,-125 -32,-189 0,-21 7,-42 13,-63l1 0c24,-76 83,-136 149,-177z"/>
    <path class="fil9" d="M3289 2169l1 0c5,22 11,44 12,67 9,61 2,124 -15,184 -17,56 -45,109 -82,154l-1 0c-46,58 -106,102 -171,136 -115,59 -247,84 -376,78 -54,-4 -109,-11 -161,-29 9,-2 18,-3 28,-4 70,-9 138,-38 194,-83 0,0 2,-1 2,-2 38,-31 70,-69 95,-112 12,-21 23,-43 32,-66 7,-19 15,-38 20,-58 15,-51 23,-104 27,-157 2,-54 2,-108 -4,-161 -6,-48 -13,-96 -25,-142 -11,-46 -25,-90 -42,-133l-4 -9c-14,-37 -31,-72 -50,-107 -10,-19 -22,-38 -34,-56 -28,-44 -62,-85 -99,-122 -13,-13 -26,-25 -39,-38 87,52 171,109 255,166 58,40 113,84 167,128 38,33 75,68 110,105 36,37 68,78 96,122 27,43 50,90 64,139z"/>
    <path class="fil10" d="M3140 2772c95,-62 174,-147 241,-239 1,182 -64,366 -188,501 -29,1 -51,24 -77,34 -24,15 -53,19 -80,25 -33,7 -66,16 -99,16 -28,1 -55,0 -83,0l0 0c-3,0 -6,0 -9,0 -79,-1 -175,-12 -175,-12l0 0 -15 -2c-15,-3 -31,-4 -47,-7 -39,-8 -77,-18 -116,-28l-5 -1c-29,-5 -55,-17 -84,-24 -48,-15 -94,-36 -139,-57 -34,-11 -65,-29 -98,-43l-4 -2c-57,-25 -111,-56 -167,-83 -10,-5 -19,-9 -29,-14 -47,-22 -93,-48 -139,-70 -16,-8 -33,-15 -49,-22 -44,-22 -89,-44 -134,-62 -38,-12 -73,-33 -112,-43 -32,-10 -62,-25 -95,-33 -34,-7 -67,-21 -102,-26 -42,-10 -85,-19 -128,-26l2 0 0 0c-332,-48 -533,20 -546,24 184,-67 383,-94 578,-82 89,6 179,15 266,36 63,9 125,28 186,44l0 1c56,15 111,33 166,53 60,22 120,45 179,69 60,23 120,46 179,70l1 -1c28,11 56,22 84,31 69,25 139,47 210,64 135,30 278,37 412,3 77,-19 150,-51 216,-94z"/>
   </g>
  </g>
 </g>
</svg>
